<?xml version="1.0" encoding="utf-8"?>
<!-- Generator: Adobe Illustrator 19.0.0, SVG Export Plug-In . SVG Version: 6.00 Build 0)  -->
<svg version="1.1" id="Layer_1" xmlns="http://www.w3.org/2000/svg" xmlns:xlink="http://www.w3.org/1999/xlink" x="0px" y="0px"
	 viewBox="-178 350 341 94" style="enable-background:new -178 350 341 94;" xml:space="preserve">
<style type="text/css">
	.st0{fill:#000203;}
</style>
<title>Group</title>
<desc>Created with Sketch.</desc>
<g id="Page-1">
	<g id="Group">
		<path id="Fill-1" class="st0" d="M-113.1,367.5v33.6c0,11.2-5,15.9-16.6,15.9c-11.6,0-16.6-4.7-16.6-15.9V366h-11.2
			c-1,0-1.5,0.5-1.5,1.5v34.1c0,18.8,11.9,25.3,29.3,25.3c17.3,0,29.3-6.6,29.3-25.3V366h-11.2C-112.6,366-113.1,366.5-113.1,367.5"
			/>
		<path id="Fill-2" class="st0" d="M49.5,375.7c0.9,0,1.3-0.3,1.7-1l3.2-8c0.2-0.5,0-0.7-0.5-0.7H8.7c-4.2,0-5.8,1.3-5.8,4.2v52.2
			c0,2.5,1.2,3.6,4.5,3.6h42.1c0.9,0,1.3-0.3,1.7-1l3.2-8c0.2-0.5,0-0.7-0.5-0.7H15.3v-10.6c0-3.7,2-5.3,7.5-5.3h16.7
			c0.9,0,1.3-0.3,1.7-1l3.1-7.7c0.2-0.5,0-0.7-0.5-0.7H15.3v-15H49.5"/>
		<path id="Fill-3" class="st0" d="M-41.8,416.3h-22.1v-11c0-3.7,2-5.3,7.5-5.3h14.7c7,0,9,2.7,9,8.2
			C-32.8,413.7-34.8,416.3-41.8,416.3z M-63.9,375.6h19.8c6.6,0,8.5,2.5,8.5,7.7c0,5.2-1.8,7.7-8.5,7.7h-19.8V375.6z M-30,394.3
			c4.9-2.6,6.9-7.4,6.9-13.1c0-13.2-10.8-15.2-21.9-15.2h-25.5c-4.2,0-5.8,1.3-5.8,4.2v52.2c0,2.5,1.2,3.6,4.5,3.6h31.4
			c11.8,0,20.3-4.6,20.3-16.5C-20.2,402.2-23.3,396.1-30,394.3L-30,394.3z"/>
		<path id="Fill-4" class="st0" d="M109.2,393.8H88.4v-18.1h20.8c7.8,0,9.5,3,9.5,9.1C118.7,390.8,117,393.8,109.2,393.8z
			 M132.7,424.8l-13.4-23c6.7-1.7,12.1-6.1,12.1-17.3c0-14.5-9-18.4-23.9-18.4H81.8c-4.2,0-5.8,1.3-5.8,4.2v54.2
			c0,1,0.5,1.5,1.5,1.5h11v-17.5c0-3.7,2-5.3,7.5-5.3h11l12.1,21.8c0.4,0.6,0.7,1,1.7,1h11.4C132.9,425.9,132.9,425.2,132.7,424.8
			L132.7,424.8z"/>
	</g>
</g>
</svg>
